<?xml version="1.0" encoding="utf-8"?>
<!-- Generator: Adobe Illustrator 16.0.0, SVG Export Plug-In . SVG Version: 6.00 Build 0)  -->
<!DOCTYPE svg PUBLIC "-//W3C//DTD SVG 1.1//EN" "http://www.w3.org/Graphics/SVG/1.1/DTD/svg11.dtd">
<svg version="1.1" id="Capa_1" xmlns="http://www.w3.org/2000/svg" xmlns:xlink="http://www.w3.org/1999/xlink" x="0px" y="0px"
	 width="480px" height="510px" viewBox="0 136.5 480 510" enable-background="new 0 136.5 480 510" xml:space="preserve">
<g>
	<g>
		<path d="M100.433,248.381h-46.3v38.583h-9.267c-20.426,0-37.033,16.603-37.033,37.031v226.617
			c0,20.573,16.732,37.303,37.293,37.303H433.54c20.563,0,37.293-16.729,37.293-37.303V323.996
			c0-20.428-16.613-37.031-37.031-37.031h-65.777l-30.873-77.17H141.51l-30.868,77.17h-10.209 M69.565,263.812h15.436v23.152H69.565
			V263.812z M455.396,550.612c0,12.055-9.802,21.866-21.855,21.866H45.127c-12.055,0-21.862-9.812-21.862-21.866V323.996
			c0-11.91,9.696-21.604,21.602-21.604h9.267h46.3h20.658l30.864-77.16h174.752l30.863,77.16h76.231
			c11.909,0,21.594,9.694,21.594,21.604V550.612L455.396,550.612z"/>
		<path d="M239.334,325.542c-51.063,0-92.602,41.543-92.602,92.602c0,51.064,41.539,92.6,92.602,92.6
			c51.055,0,92.599-41.535,92.599-92.6C331.934,367.085,290.39,325.542,239.334,325.542z M239.334,495.315
			c-42.55,0-77.17-34.616-77.17-77.172c0-42.549,34.62-77.166,77.17-77.166c42.546,0,77.163,34.616,77.163,77.166
			C316.497,460.699,281.881,495.315,239.334,495.315z"/>
		<path d="M409.097,317.829c-17.019,0-30.863,13.845-30.863,30.863c0,17.027,13.845,30.872,30.863,30.872
			c17.028,0,30.864-13.845,30.864-30.872C439.961,331.673,426.125,317.829,409.097,317.829z M409.097,364.128
			c-8.51,0-15.437-6.918-15.437-15.436c0-8.509,6.927-15.427,15.437-15.427c8.509,0,15.437,6.918,15.437,15.427
			C424.533,357.21,417.605,364.128,409.097,364.128z"/>
	</g>
</g>
</svg>
