<?xml version="1.0" encoding="utf-8"?>
<!-- Generator: Adobe Illustrator 16.0.0, SVG Export Plug-In . SVG Version: 6.00 Build 0)  -->
<!DOCTYPE svg PUBLIC "-//W3C//DTD SVG 1.1//EN" "http://www.w3.org/Graphics/SVG/1.1/DTD/svg11.dtd">
<svg version="1.1" id="Layer_1" xmlns="http://www.w3.org/2000/svg" xmlns:xlink="http://www.w3.org/1999/xlink" x="0px" y="0px"
	 width="480px" height="800px" viewBox="0 0 480 800" enable-background="new 0 0 480 800" xml:space="preserve">
<g>
	<path fill="#FFFFFF" d="M28.279,611.721c2.977,2.977,6.697,4.466,10.791,4.466c4.093,0,7.814-1.489,10.791-4.466L240,421.581
		l190.14,190.14c2.977,2.977,6.697,4.466,10.791,4.466c3.721,0,7.813-1.489,10.79-4.466c5.954-5.953,5.954-15.628,0-21.581
		L261.582,400l190.139-190.14c5.954-5.953,5.954-15.628,0-21.581c-5.953-5.954-15.628-5.954-21.581,0L240,378.418L49.86,188.279
		c-5.954-5.954-15.628-5.954-21.581,0c-5.954,5.953-5.954,15.628,0,21.581L218.418,400L28.279,590.14
		C22.326,596.093,22.326,605.768,28.279,611.721z"/>
</g>
</svg>
