<?xml version="1.0" encoding="utf-8"?>
<!-- Generator: Adobe Illustrator 16.0.0, SVG Export Plug-In . SVG Version: 6.00 Build 0)  -->
<!DOCTYPE svg PUBLIC "-//W3C//DTD SVG 1.1//EN" "http://www.w3.org/Graphics/SVG/1.1/DTD/svg11.dtd">
<svg version="1.1" id="Capa_1" xmlns="http://www.w3.org/2000/svg" xmlns:xlink="http://www.w3.org/1999/xlink" x="0px" y="0px"
	 width="480px" height="800px" viewBox="0 0 480 800" enable-background="new 0 0 480 800" xml:space="preserve">
<g>
	<path fill="#FFFFFF" d="M105.92,635.724c-1.178,0-2.371-0.291-3.447-0.873c-2.356-1.265-3.825-3.738-3.825-6.399V524.829
		C34.982,491.724,0,433.76,0,361.135c0-112.233,103.171-196.858,240-196.858s240,84.625,240,196.858
		c0,112.218-103.171,196.844-240,196.844c-4.495,0-8.902-0.248-13.324-0.48l-0.291-0.015L109.92,634.517
		C108.713,635.316,107.316,635.724,105.92,635.724z M240,178.822c-128.523,0-225.455,78.385-225.455,182.313
		c0,48.334,16.407,114.065,94.589,152.713c2.473,1.222,4.043,3.752,4.043,6.516v94.561l107.186-70.895
		c1.309-0.873,2.895-1.382,4.393-1.193l2.706,0.146c4.16,0.233,8.305,0.451,12.523,0.451c128.523,0,225.455-78.371,225.455-182.298
		C465.44,257.207,368.523,178.822,240,178.822z"/>
</g>
</svg>
