<?xml version="1.0" encoding="utf-8"?>
<!-- Generator: Adobe Illustrator 16.0.0, SVG Export Plug-In . SVG Version: 6.00 Build 0)  -->
<!DOCTYPE svg PUBLIC "-//W3C//DTD SVG 1.1//EN" "http://www.w3.org/Graphics/SVG/1.1/DTD/svg11.dtd">
<svg version="1.1" id="Capa_1" xmlns="http://www.w3.org/2000/svg" xmlns:xlink="http://www.w3.org/1999/xlink" x="0px" y="0px"
	 width="480px" height="800px" viewBox="0 0 480 800" enable-background="new 0 0 480 800" xml:space="preserve">
<g>
	<path fill="#FFFFFF" d="M479.206,309.935c-7.007-77.118-61.591-133.069-129.903-133.069c-45.51,0-87.18,24.491-110.627,63.742
		c-23.235-39.759-63.197-63.751-107.979-63.751c-68.302,0-122.896,55.951-129.894,133.069c-0.554,3.406-2.825,21.333,4.08,50.569
		c9.951,42.168,32.938,80.525,66.456,110.896l167.225,151.753L408.66,471.399c33.52-30.38,56.505-68.728,66.456-110.905
		C482.021,331.269,479.751,313.341,479.206,309.935z M457.144,356.267c-9.084,38.513-30.141,73.602-60.835,101.406L238.675,598.312
		L83.747,457.709c-30.75-27.859-51.797-62.938-60.89-101.452c-6.536-27.666-3.85-43.294-3.84-43.396l0.138-0.933
		c6-67.564,52.905-116.61,111.542-116.61c43.267,0,81.355,26.586,99.43,69.374l8.502,20.152l8.502-20.152
		c17.789-42.132,57.89-69.364,102.182-69.364c58.628,0,105.541,49.046,111.662,117.487
		C460.993,312.963,463.679,328.601,457.144,356.267z"/>
</g>
</svg>
