<?xml version="1.0" encoding="utf-8"?>
<!-- Generator: Adobe Illustrator 16.0.0, SVG Export Plug-In . SVG Version: 6.00 Build 0)  -->
<!DOCTYPE svg PUBLIC "-//W3C//DTD SVG 1.1//EN" "http://www.w3.org/Graphics/SVG/1.1/DTD/svg11.dtd">
<svg version="1.1" id="Capa_1" xmlns="http://www.w3.org/2000/svg" xmlns:xlink="http://www.w3.org/1999/xlink" x="0px" y="0px"
	 width="626.969px" height="614.969px" viewBox="-7.894 91.106 626.969 614.969"
	 enable-background="new -7.894 91.106 626.969 614.969" xml:space="preserve">
<path d="M123.645,687.551c-2.268,0-4.535-0.701-6.441-2.092c-3.374-2.454-5.061-6.606-4.349-10.714l33.861-197.38L3.308,337.596
	c-2.979-2.914-4.053-7.263-2.771-11.218c1.293-3.965,4.722-6.857,8.852-7.46l198.168-28.8L296.19,110.54
	c1.84-3.747,5.652-6.113,9.815-6.113l0,0c4.174,0,7.985,2.366,9.814,6.113l88.623,179.578l198.18,28.8
	c4.13,0.603,7.548,3.483,8.852,7.46c1.281,3.955,0.219,8.315-2.771,11.218L465.296,477.387l33.85,197.369
	c0.701,4.108-0.985,8.26-4.349,10.714c-3.374,2.476-7.854,2.793-11.546,0.832l-177.245-93.18l-177.268,93.18
	C127.139,687.135,125.386,687.551,123.645,687.551z"/>
<path fill="none" d="M611.463,326.94c-1.292-3.965-4.721-6.857-8.851-7.46l-198.169-28.8L315.82,111.113
	c-1.84-3.747-5.652-6.113-9.814-6.113c-4.163,0-7.986,2.366-9.815,6.113l-88.634,179.579l-198.168,28.8
	c-4.13,0.602-7.548,3.483-8.852,7.46c-1.282,3.955-0.219,8.314,2.771,11.217l143.407,139.781l-33.861,197.379
	c-0.701,4.109,0.986,8.26,4.349,10.715c3.385,2.475,7.865,2.793,11.535,0.832l177.268-93.18l177.245,93.18
	c1.599,0.844,3.362,1.26,5.104,1.26c2.268,0,4.524-0.701,6.441-2.092c3.374-2.455,5.061-6.605,4.349-10.715l-33.85-197.367
	l143.407-139.792C611.683,335.244,612.756,330.895,611.463,326.94z"/>
</svg>
